<svg width="166" height="31" viewBox="0 0 166 31" fill="none" xmlns="http://www.w3.org/2000/svg">
<path d="M0.47998 30.0144H4.14548L4.84367 24.0228H8.47426L9.17244 30.0144H12.8379L8.96299 0.655253H4.35493L0.47998 30.0144ZM5.36731 19.4691L6.4495 10.202L6.55423 9.44303H6.76369L6.86842 10.202L7.95061 19.4691H5.36731Z" fill="white"/>
<path d="M14.5842 30.0144H18.3545V19.6289L19.2272 17.2322L19.4367 16.633H19.5414L19.6461 17.2322L22.2643 30.0144H25.9298L22.02 10.3218L25.476 0.655253H21.8105L18.6686 10.4416L18.4941 10.921H18.3545V0.655253H14.5842V30.0144Z" fill="white"/>
<path d="M27.6753 30.0144H31.4455V17.2322H34.3779V30.0144H38.1481V0.655253H34.3779V12.7984H31.4455V0.655253H27.6753V30.0144Z" fill="white"/>
<path d="M40.9368 30.0144H44.707V0.655253H40.9368V30.0144Z" fill="white"/>
<path d="M47.5164 30.0144H56.2787V26.02H51.2867V0.655253H47.5164V30.0144Z" fill="white"/>
<path d="M57.812 30.0144H66.4347V25.5806H61.5822V17.5118H65.0732V12.7984H61.5822V5.08909H66.4347V0.655253H57.812V30.0144Z" fill="white"/>
<path d="M73.2295 30.334C74.94 30.334 76.2375 29.7215 77.1219 28.4965C78.0179 27.2716 78.4659 25.4874 78.4659 23.144C78.4659 21.8524 78.1982 20.501 77.663 19.0896C77.1277 17.6782 76.22 15.9407 74.94 13.8769C73.8113 12.0527 73.0316 10.648 72.6011 9.66273C72.1822 8.67743 71.9727 7.79199 71.9727 7.00642C71.9727 5.20892 72.4033 4.30351 73.2644 4.2902C74.2651 4.26357 74.7655 5.67494 74.7655 8.52431L78.4659 8.12486C78.4659 5.59505 78.0062 3.65774 77.087 2.31295C76.1793 0.954835 74.8818 0.295752 73.1946 0.335696C71.74 0.362326 70.5531 1.01475 69.6338 2.29298C68.7261 3.55788 68.2723 5.1956 68.2723 7.20614C68.2723 9.42972 69.2847 12.2591 71.3094 15.6943C72.1007 17.0258 72.7233 18.1043 73.1771 18.9298C73.6426 19.7554 73.9858 20.4278 74.2069 20.947C74.4397 21.453 74.5909 21.899 74.6607 22.2852C74.7306 22.6713 74.7655 23.0907 74.7655 23.5434C74.7655 25.4341 74.2535 26.3795 73.2295 26.3795C72.6127 26.3795 72.1589 25.9867 71.868 25.2011C71.5887 24.4022 71.4491 23.1307 71.4491 21.3864L67.7487 21.7859C67.5741 27.4846 69.4011 30.334 73.2295 30.334Z" fill="white"/>
<path d="M80.4827 30.0144H84.253V17.2322H87.1853V30.0144H90.9556V0.655253H87.1853V12.7984H84.253V0.655253H80.4827V30.0144Z" fill="white"/>
<path d="M99.1307 30.0144H102.901V19.6289L103.774 17.2322L103.983 16.633H104.088L104.193 17.2322L106.811 30.0144H110.476L106.566 10.3218L110.022 0.655253H106.357L103.215 10.4416L103.041 10.921H102.901V0.655253H99.1307V30.0144Z" fill="white"/>
<path d="M117.214 30.334C118.703 30.334 119.902 29.7681 120.809 28.6363C121.717 27.4913 122.194 25.9401 122.241 23.9828V0.655253H118.471V23.9828C118.471 24.6486 118.36 25.1745 118.139 25.5606C117.918 25.9468 117.609 26.1398 117.214 26.1398C116.818 26.1398 116.51 25.9468 116.289 25.5606C116.068 25.1745 115.957 24.6486 115.957 23.9828V0.655253H112.187V23.9828C112.257 25.9534 112.74 27.5046 113.636 28.6363C114.532 29.7681 115.724 30.334 117.214 30.334Z" fill="white"/>
<path d="M125.006 30.0144H128.497V10.3218H128.706L128.846 11.5601L131.255 30.0144H132.861L135.269 11.5601L135.409 10.3218H135.618V30.0144H139.109V0.655253H134.501L132.267 14.0766L132.093 15.6344H132.023L131.848 14.0766L129.614 0.655253H125.006V30.0144Z" fill="white"/>
<path d="M140.868 30.0144H144.533L145.232 24.0228H148.862L149.56 30.0144H153.226L149.351 0.655253H144.743L140.868 30.0144ZM145.755 19.4691L146.837 10.202L146.942 9.44303H147.152L147.256 10.202L148.339 19.4691H145.755Z" fill="white"/>
<path d="M154.972 30.0144H158.742V17.6316H159.755L161.71 30.0144H165.48L163.071 15.7942C164.468 14.6891 165.166 12.4655 165.166 9.12348C165.166 3.47799 163.025 0.655253 158.742 0.655253H154.972V30.0144ZM158.742 13.6372V4.92931C159.708 4.92931 160.412 5.28215 160.854 5.98784C161.308 6.68021 161.535 7.77868 161.535 9.28325C161.535 10.7878 161.308 11.893 160.854 12.5986C160.412 13.291 159.708 13.6372 158.742 13.6372Z" fill="white"/>
</svg>
