<svg width="228" height="37" viewBox="0 0 228 37" fill="none" xmlns="http://www.w3.org/2000/svg">
<path d="M0.47998 36H5.51998L6.47998 28.8H11.472L12.432 36H17.472L12.144 0.720042H5.80798L0.47998 36ZM7.19998 23.328L8.68798 12.192L8.83198 11.28H9.11998L9.26398 12.192L10.752 23.328H7.19998Z" fill="white"/>
<path d="M19.8731 36H25.0571V23.52L26.2571 20.64L26.5451 19.92H26.6891L26.8331 20.64L30.4331 36H35.4731L30.0971 12.336L34.8491 0.720042H29.8091L25.4891 12.48L25.2491 13.056H25.0571V0.720042H19.8731V36Z" fill="white"/>
<path d="M37.8731 36H43.0571V20.64H47.0891V36H52.2731V0.720042H47.0891V15.312H43.0571V0.720042H37.8731V36Z" fill="white"/>
<path d="M56.1075 36H61.2915V0.720042H56.1075V36Z" fill="white"/>
<path d="M65.1544 36H77.2024V31.2H70.3384V0.720042H65.1544V36Z" fill="white"/>
<path d="M79.3106 36H91.1666V30.672H84.4946V20.976H89.2946V15.312H84.4946V6.04804H91.1666V0.720042H79.3106V36Z" fill="white"/>
<path d="M100.509 36.384C102.861 36.384 104.645 35.648 105.861 34.176C107.093 32.704 107.709 30.56 107.709 27.744C107.709 26.192 107.341 24.568 106.605 22.872C105.869 21.176 104.621 19.088 102.861 16.608C101.309 14.416 100.237 12.728 99.6454 11.544C99.0694 10.36 98.7814 9.29604 98.7814 8.35204C98.7814 6.19204 99.3734 5.10404 100.557 5.08804C101.933 5.05604 102.621 6.75204 102.621 10.176L107.709 9.69604C107.709 6.65604 107.077 4.32804 105.813 2.71204C104.565 1.08004 102.781 0.288041 100.461 0.336042C98.4614 0.368041 96.8294 1.15204 95.5654 2.68804C94.3174 4.20804 93.6934 6.17604 93.6934 8.59204C93.6934 11.264 95.0854 14.664 97.8694 18.792C98.9574 20.392 99.8134 21.688 100.437 22.68C101.077 23.672 101.549 24.48 101.853 25.104C102.173 25.712 102.381 26.248 102.477 26.712C102.573 27.176 102.621 27.68 102.621 28.224C102.621 30.496 101.917 31.632 100.509 31.632C99.6614 31.632 99.0374 31.16 98.6374 30.216C98.2534 29.256 98.0614 27.728 98.0614 25.632L92.9734 26.112C92.7334 32.96 95.2454 36.384 100.509 36.384Z" fill="white"/>
<path d="M110.482 36H115.666V20.64H119.698V36H124.882V0.720042H119.698V15.312H115.666V0.720042H110.482V36Z" fill="white"/>
<path d="M136.123 36H141.307V23.52L142.507 20.64L142.795 19.92H142.939L143.083 20.64L146.683 36H151.723L146.347 12.336L151.099 0.720042H146.059L141.739 12.48L141.499 13.056H141.307V0.720042H136.123V36Z" fill="white"/>
<path d="M160.987 36.384C163.035 36.384 164.683 35.704 165.931 34.344C167.179 32.968 167.835 31.104 167.899 28.752V0.720042H162.715V28.752C162.715 29.552 162.563 30.184 162.259 30.648C161.955 31.112 161.531 31.344 160.987 31.344C160.443 31.344 160.019 31.112 159.715 30.648C159.411 30.184 159.259 29.552 159.259 28.752V0.720042H154.075V28.752C154.171 31.12 154.835 32.984 156.067 34.344C157.299 35.704 158.939 36.384 160.987 36.384Z" fill="white"/>
<path d="M171.701 36H176.501V12.336H176.789L176.981 13.824L180.293 36H182.501L185.813 13.824L186.005 12.336H186.293V36H191.093V0.720042H184.757L181.685 16.848L181.445 18.72H181.349L181.109 16.848L178.037 0.720042H171.701V36Z" fill="white"/>
<path d="M193.511 36H198.551L199.511 28.8H204.503L205.463 36H210.503L205.175 0.720042H198.839L193.511 36ZM200.231 23.328L201.719 12.192L201.863 11.28H202.151L202.295 12.192L203.783 23.328H200.231Z" fill="white"/>
<path d="M212.904 36H218.088V21.12H219.48L222.168 36H227.352L224.04 18.912C225.96 17.584 226.92 14.912 226.92 10.896C226.92 4.11204 223.976 0.720042 218.088 0.720042H212.904V36ZM218.088 16.32V5.85604C219.416 5.85604 220.384 6.28004 220.992 7.12804C221.616 7.96004 221.928 9.28004 221.928 11.088C221.928 12.896 221.616 14.224 220.992 15.072C220.384 15.904 219.416 16.32 218.088 16.32Z" fill="white"/>
</svg>
